{
  "nbformat": 4,
  "nbformat_minor": 0,
  "metadata": {
    "colab": {
      "name": "test cart.ipynb",
      "provenance": [],
      "collapsed_sections": []
    },
    "kernelspec": {
      "name": "python3",
      "display_name": "Python 3"
    },
    "accelerator": "GPU"
  },
  "cells": [
    {
      "cell_type": "markdown",
      "metadata": {
        "id": "qQXon2xOjzmU"
      },
      "source": [
        "1. incase if you havn't watched my last video on cartoonize then you have to do few steps. I highly recommend to watch that video.\n",
        "clone the repository : https://github.com/SystemErrorWang/White-box-Cartoonization.git"
      ]
    },
    {
      "cell_type": "code",
      "metadata": {
        "id": "oTWTUscejsye",
        "outputId": "ae19895f-2cd8-4adf-b1c3-57cf278b0e19",
        "colab": {
          "base_uri": "https://localhost:8080/",
          "height": 34
        }
      },
      "source": [
        "cd drive/My\\ Drive"
      ],
      "execution_count": 1,
      "outputs": [
        {
          "output_type": "stream",
          "text": [
            "/content/drive/My Drive\n"
          ],
          "name": "stdout"
        }
      ]
    },
    {
      "cell_type": "code",
      "metadata": {
        "id": "3yO8ncO9kbiK",
        "outputId": "06f5f183-654f-4023-a23f-3edc0544af02",
        "colab": {
          "base_uri": "https://localhost:8080/",
          "height": 34
        }
      },
      "source": [
        "cd White-box-Cartoonization/test_code/"
      ],
      "execution_count": 2,
      "outputs": [
        {
          "output_type": "stream",
          "text": [
            "/content/drive/My Drive/White-box-Cartoonization/test_code\n"
          ],
          "name": "stdout"
        }
      ]
    },
    {
      "cell_type": "code",
      "metadata": {
        "id": "10m1TIqZkgSP",
        "outputId": "c06e0c92-2a4f-472f-c3a0-80ca76b718b6",
        "colab": {
          "base_uri": "https://localhost:8080/",
          "height": 102
        }
      },
      "source": [
        "!apt install ffmpeg"
      ],
      "execution_count": 3,
      "outputs": [
        {
          "output_type": "stream",
          "text": [
            "Reading package lists... Done\n",
            "Building dependency tree       \n",
            "Reading state information... Done\n",
            "ffmpeg is already the newest version (7:3.4.8-0ubuntu0.2).\n",
            "0 upgraded, 0 newly installed, 0 to remove and 22 not upgraded.\n"
          ],
          "name": "stdout"
        }
      ]
    },
    {
      "cell_type": "code",
      "metadata": {
        "id": "95h9RBXspSi4",
        "outputId": "aae5d5d7-ceb2-4951-cd85-7db07000b868",
        "colab": {
          "base_uri": "https://localhost:8080/",
          "height": 51
        }
      },
      "source": [
        "ls"
      ],
      "execution_count": 4,
      "outputs": [
        {
          "output_type": "stream",
          "text": [
            " cartoonize.py     'intro of cartoonize .mp4'   \u001b[0m\u001b[01;34m__pycache__\u001b[0m/    \u001b[01;34mtest_images\u001b[0m/\n",
            " guided_filter.py   network.py                  \u001b[01;34msaved_models\u001b[0m/\n"
          ],
          "name": "stdout"
        }
      ]
    },
    {
      "cell_type": "markdown",
      "metadata": {
        "id": "o-5pBVW8nU27"
      },
      "source": [
        "\n",
        "**Extracting frames from video**\n"
      ]
    },
    {
      "cell_type": "code",
      "metadata": {
        "id": "HVIp4olhkshw",
        "outputId": "a86e5413-6f56-4941-f801-d707d3454e52",
        "colab": {
          "base_uri": "https://localhost:8080/",
          "height": 785
        }
      },
      "source": [
        "!ffmpeg -i 'intro of cartoonize .mp4' -vf  fps=30   test_images/frame_%04d.png  "
      ],
      "execution_count": 5,
      "outputs": [
        {
          "output_type": "stream",
          "text": [
            "ffmpeg version 3.4.8-0ubuntu0.2 Copyright (c) 2000-2020 the FFmpeg developers\n",
            "  built with gcc 7 (Ubuntu 7.5.0-3ubuntu1~18.04)\n",
            "  configuration: --prefix=/usr --extra-version=0ubuntu0.2 --toolchain=hardened --libdir=/usr/lib/x86_64-linux-gnu --incdir=/usr/include/x86_64-linux-gnu --enable-gpl --disable-stripping --enable-avresample --enable-avisynth --enable-gnutls --enable-ladspa --enable-libass --enable-libbluray --enable-libbs2b --enable-libcaca --enable-libcdio --enable-libflite --enable-libfontconfig --enable-libfreetype --enable-libfribidi --enable-libgme --enable-libgsm --enable-libmp3lame --enable-libmysofa --enable-libopenjpeg --enable-libopenmpt --enable-libopus --enable-libpulse --enable-librubberband --enable-librsvg --enable-libshine --enable-libsnappy --enable-libsoxr --enable-libspeex --enable-libssh --enable-libtheora --enable-libtwolame --enable-libvorbis --enable-libvpx --enable-libwavpack --enable-libwebp --enable-libx265 --enable-libxml2 --enable-libxvid --enable-libzmq --enable-libzvbi --enable-omx --enable-openal --enable-opengl --enable-sdl2 --enable-libdc1394 --enable-libdrm --enable-libiec61883 --enable-chromaprint --enable-frei0r --enable-libopencv --enable-libx264 --enable-shared\n",
            "  libavutil      55. 78.100 / 55. 78.100\n",
            "  libavcodec     57.107.100 / 57.107.100\n",
            "  libavformat    57. 83.100 / 57. 83.100\n",
            "  libavdevice    57. 10.100 / 57. 10.100\n",
            "  libavfilter     6.107.100 /  6.107.100\n",
            "  libavresample   3.  7.  0 /  3.  7.  0\n",
            "  libswscale      4.  8.100 /  4.  8.100\n",
            "  libswresample   2.  9.100 /  2.  9.100\n",
            "  libpostproc    54.  7.100 / 54.  7.100\n",
            "Input #0, mov,mp4,m4a,3gp,3g2,mj2, from 'intro of cartoonize .mp4':\n",
            "  Metadata:\n",
            "    major_brand     : mp42\n",
            "    minor_version   : 0\n",
            "    compatible_brands: mp42mp41\n",
            "    creation_time   : 2020-10-02T22:03:56.000000Z\n",
            "  Duration: 00:00:26.82, start: 0.000000, bitrate: 10524 kb/s\n",
            "    Stream #0:0(eng): Video: h264 (Main) (avc1 / 0x31637661), yuv420p, 1080x1920 [SAR 1:1 DAR 9:16], 10218 kb/s, 30 fps, 30 tbr, 30k tbn, 60 tbc (default)\n",
            "    Metadata:\n",
            "      creation_time   : 2020-10-02T22:03:56.000000Z\n",
            "      handler_name    : Alias Data Handler\n",
            "      encoder         : AVC Coding\n",
            "    Stream #0:1(eng): Audio: aac (LC) (mp4a / 0x6134706D), 48000 Hz, stereo, fltp, 317 kb/s (default)\n",
            "    Metadata:\n",
            "      creation_time   : 2020-10-02T22:03:56.000000Z\n",
            "      handler_name    : Alias Data Handler\n",
            "Stream mapping:\n",
            "  Stream #0:0 -> #0:0 (h264 (native) -> png (native))\n",
            "Press [q] to stop, [?] for help\n",
            "Output #0, image2, to 'test_images/frame_%04d.png':\n",
            "  Metadata:\n",
            "    major_brand     : mp42\n",
            "    minor_version   : 0\n",
            "    compatible_brands: mp42mp41\n",
            "    encoder         : Lavf57.83.100\n",
            "    Stream #0:0(eng): Video: png, rgb24, 1080x1920 [SAR 1:1 DAR 9:16], q=2-31, 200 kb/s, 30 fps, 30 tbn, 30 tbc (default)\n",
            "    Metadata:\n",
            "      creation_time   : 2020-10-02T22:03:56.000000Z\n",
            "      handler_name    : Alias Data Handler\n",
            "      encoder         : Lavc57.107.100 png\n",
            "frame=  803 fps=8.4 q=-0.0 Lsize=N/A time=00:00:26.76 bitrate=N/A speed=0.281x    \n",
            "video:1236313kB audio:0kB subtitle:0kB other streams:0kB global headers:0kB muxing overhead: unknown\n"
          ],
          "name": "stdout"
        }
      ]
    },
    {
      "cell_type": "code",
      "metadata": {
        "id": "FG28HhShqB8q",
        "outputId": "348c6d2d-b991-456b-bc2a-53d2ede71419",
        "colab": {
          "base_uri": "https://localhost:8080/",
          "height": 34
        }
      },
      "source": [
        "%tensorflow_version 1.x"
      ],
      "execution_count": 6,
      "outputs": [
        {
          "output_type": "stream",
          "text": [
            "TensorFlow 1.x selected.\n"
          ],
          "name": "stdout"
        }
      ]
    },
    {
      "cell_type": "markdown",
      "metadata": {
        "id": "Rdcl6S3enZOs"
      },
      "source": [
        "\n",
        "**converting frames into cartooizing frame.**\n"
      ]
    },
    {
      "cell_type": "code",
      "metadata": {
        "id": "SCIEqc_jnN34",
        "outputId": "d76fd4ab-02dd-4e5b-b7c4-01f981bb323b",
        "colab": {
          "base_uri": "https://localhost:8080/",
          "height": 1000
        }
      },
      "source": [
        "!python cartoonize.py"
      ],
      "execution_count": 7,
      "outputs": [
        {
          "output_type": "stream",
          "text": [
            "WARNING:tensorflow:\n",
            "The TensorFlow contrib module will not be included in TensorFlow 2.0.\n",
            "For more information, please see:\n",
            "  * https://github.com/tensorflow/community/blob/master/rfcs/20180907-contrib-sunset.md\n",
            "  * https://github.com/tensorflow/addons\n",
            "  * https://github.com/tensorflow/io (for I/O related ops)\n",
            "If you depend on functionality not listed there, please file an issue.\n",
            "\n",
            "WARNING:tensorflow:From cartoonize.py:26: The name tf.placeholder is deprecated. Please use tf.compat.v1.placeholder instead.\n",
            "\n",
            "WARNING:tensorflow:From /content/drive/My Drive/White-box-Cartoonization/test_code/network.py:23: The name tf.variable_scope is deprecated. Please use tf.compat.v1.variable_scope instead.\n",
            "\n",
            "WARNING:tensorflow:From /tensorflow-1.15.2/python3.6/tensorflow_core/contrib/layers/python/layers/layers.py:1057: Layer.apply (from tensorflow.python.keras.engine.base_layer) is deprecated and will be removed in a future version.\n",
            "Instructions for updating:\n",
            "Please use `layer.__call__` method instead.\n",
            "WARNING:tensorflow:From /content/drive/My Drive/White-box-Cartoonization/test_code/network.py:45: The name tf.image.resize_bilinear is deprecated. Please use tf.compat.v1.image.resize_bilinear instead.\n",
            "\n",
            "WARNING:tensorflow:From cartoonize.py:30: The name tf.trainable_variables is deprecated. Please use tf.compat.v1.trainable_variables instead.\n",
            "\n",
            "WARNING:tensorflow:From cartoonize.py:32: The name tf.train.Saver is deprecated. Please use tf.compat.v1.train.Saver instead.\n",
            "\n",
            "WARNING:tensorflow:From cartoonize.py:34: The name tf.ConfigProto is deprecated. Please use tf.compat.v1.ConfigProto instead.\n",
            "\n",
            "WARNING:tensorflow:From cartoonize.py:36: The name tf.Session is deprecated. Please use tf.compat.v1.Session instead.\n",
            "\n",
            "2020-10-02 23:33:09.615678: I tensorflow/core/platform/profile_utils/cpu_utils.cc:94] CPU Frequency: 2200000000 Hz\n",
            "2020-10-02 23:33:09.615894: I tensorflow/compiler/xla/service/service.cc:168] XLA service 0x19c8d80 initialized for platform Host (this does not guarantee that XLA will be used). Devices:\n",
            "2020-10-02 23:33:09.615926: I tensorflow/compiler/xla/service/service.cc:176]   StreamExecutor device (0): Host, Default Version\n",
            "2020-10-02 23:33:09.619747: I tensorflow/stream_executor/platform/default/dso_loader.cc:44] Successfully opened dynamic library libcuda.so.1\n",
            "2020-10-02 23:33:09.833702: I tensorflow/stream_executor/cuda/cuda_gpu_executor.cc:983] successful NUMA node read from SysFS had negative value (-1), but there must be at least one NUMA node, so returning NUMA node zero\n",
            "2020-10-02 23:33:09.834446: I tensorflow/compiler/xla/service/service.cc:168] XLA service 0x19c8f40 initialized for platform CUDA (this does not guarantee that XLA will be used). Devices:\n",
            "2020-10-02 23:33:09.834499: I tensorflow/compiler/xla/service/service.cc:176]   StreamExecutor device (0): Tesla T4, Compute Capability 7.5\n",
            "2020-10-02 23:33:09.835694: I tensorflow/stream_executor/cuda/cuda_gpu_executor.cc:983] successful NUMA node read from SysFS had negative value (-1), but there must be at least one NUMA node, so returning NUMA node zero\n",
            "2020-10-02 23:33:09.836269: I tensorflow/core/common_runtime/gpu/gpu_device.cc:1639] Found device 0 with properties: \n",
            "name: Tesla T4 major: 7 minor: 5 memoryClockRate(GHz): 1.59\n",
            "pciBusID: 0000:00:04.0\n",
            "2020-10-02 23:33:09.836672: I tensorflow/stream_executor/platform/default/dso_loader.cc:44] Successfully opened dynamic library libcudart.so.10.1\n",
            "2020-10-02 23:33:10.034150: I tensorflow/stream_executor/platform/default/dso_loader.cc:44] Successfully opened dynamic library libcublas.so.10\n",
            "2020-10-02 23:33:10.178451: I tensorflow/stream_executor/platform/default/dso_loader.cc:44] Successfully opened dynamic library libcufft.so.10\n",
            "2020-10-02 23:33:10.200108: I tensorflow/stream_executor/platform/default/dso_loader.cc:44] Successfully opened dynamic library libcurand.so.10\n",
            "2020-10-02 23:33:10.472893: I tensorflow/stream_executor/platform/default/dso_loader.cc:44] Successfully opened dynamic library libcusolver.so.10\n",
            "2020-10-02 23:33:10.486071: I tensorflow/stream_executor/platform/default/dso_loader.cc:44] Successfully opened dynamic library libcusparse.so.10\n",
            "2020-10-02 23:33:10.995244: I tensorflow/stream_executor/platform/default/dso_loader.cc:44] Successfully opened dynamic library libcudnn.so.7\n",
            "2020-10-02 23:33:10.995491: I tensorflow/stream_executor/cuda/cuda_gpu_executor.cc:983] successful NUMA node read from SysFS had negative value (-1), but there must be at least one NUMA node, so returning NUMA node zero\n",
            "2020-10-02 23:33:10.996185: I tensorflow/stream_executor/cuda/cuda_gpu_executor.cc:983] successful NUMA node read from SysFS had negative value (-1), but there must be at least one NUMA node, so returning NUMA node zero\n",
            "2020-10-02 23:33:10.996744: I tensorflow/core/common_runtime/gpu/gpu_device.cc:1767] Adding visible gpu devices: 0\n",
            "2020-10-02 23:33:10.998824: I tensorflow/stream_executor/platform/default/dso_loader.cc:44] Successfully opened dynamic library libcudart.so.10.1\n",
            "2020-10-02 23:33:11.000323: I tensorflow/core/common_runtime/gpu/gpu_device.cc:1180] Device interconnect StreamExecutor with strength 1 edge matrix:\n",
            "2020-10-02 23:33:11.000356: I tensorflow/core/common_runtime/gpu/gpu_device.cc:1186]      0 \n",
            "2020-10-02 23:33:11.000371: I tensorflow/core/common_runtime/gpu/gpu_device.cc:1199] 0:   N \n",
            "2020-10-02 23:33:11.001315: I tensorflow/stream_executor/cuda/cuda_gpu_executor.cc:983] successful NUMA node read from SysFS had negative value (-1), but there must be at least one NUMA node, so returning NUMA node zero\n",
            "2020-10-02 23:33:11.001964: I tensorflow/stream_executor/cuda/cuda_gpu_executor.cc:983] successful NUMA node read from SysFS had negative value (-1), but there must be at least one NUMA node, so returning NUMA node zero\n",
            "2020-10-02 23:33:11.002543: I tensorflow/core/common_runtime/gpu/gpu_device.cc:1325] Created TensorFlow device (/job:localhost/replica:0/task:0/device:GPU:0 with 14221 MB memory) -> physical GPU (device: 0, name: Tesla T4, pci bus id: 0000:00:04.0, compute capability: 7.5)\n",
            "WARNING:tensorflow:From cartoonize.py:38: The name tf.global_variables_initializer is deprecated. Please use tf.compat.v1.global_variables_initializer instead.\n",
            "\n",
            "  0% 0/803 [00:00<?, ?it/s]2020-10-02 23:33:20.307017: I tensorflow/stream_executor/platform/default/dso_loader.cc:44] Successfully opened dynamic library libcudnn.so.7\n",
            "2020-10-02 23:33:25.455081: I tensorflow/stream_executor/platform/default/dso_loader.cc:44] Successfully opened dynamic library libcublas.so.10\n",
            "100% 803/803 [03:05<00:00,  4.32it/s]\n"
          ],
          "name": "stdout"
        }
      ]
    },
    {
      "cell_type": "markdown",
      "metadata": {
        "id": "B6c1oqypnuzI"
      },
      "source": [
        "**creating video from frames**"
      ]
    },
    {
      "cell_type": "code",
      "metadata": {
        "id": "bIxYP1Ucmyzr",
        "outputId": "d81da047-e880-4310-fc0b-b3aefa87df87",
        "colab": {
          "base_uri": "https://localhost:8080/",
          "height": 819
        }
      },
      "source": [
        "!ffmpeg -framerate 30 -i cartoonized_images/frame_%04d.png video.mp4\n"
      ],
      "execution_count": 8,
      "outputs": [
        {
          "output_type": "stream",
          "text": [
            "ffmpeg version 3.4.8-0ubuntu0.2 Copyright (c) 2000-2020 the FFmpeg developers\n",
            "  built with gcc 7 (Ubuntu 7.5.0-3ubuntu1~18.04)\n",
            "  configuration: --prefix=/usr --extra-version=0ubuntu0.2 --toolchain=hardened --libdir=/usr/lib/x86_64-linux-gnu --incdir=/usr/include/x86_64-linux-gnu --enable-gpl --disable-stripping --enable-avresample --enable-avisynth --enable-gnutls --enable-ladspa --enable-libass --enable-libbluray --enable-libbs2b --enable-libcaca --enable-libcdio --enable-libflite --enable-libfontconfig --enable-libfreetype --enable-libfribidi --enable-libgme --enable-libgsm --enable-libmp3lame --enable-libmysofa --enable-libopenjpeg --enable-libopenmpt --enable-libopus --enable-libpulse --enable-librubberband --enable-librsvg --enable-libshine --enable-libsnappy --enable-libsoxr --enable-libspeex --enable-libssh --enable-libtheora --enable-libtwolame --enable-libvorbis --enable-libvpx --enable-libwavpack --enable-libwebp --enable-libx265 --enable-libxml2 --enable-libxvid --enable-libzmq --enable-libzvbi --enable-omx --enable-openal --enable-opengl --enable-sdl2 --enable-libdc1394 --enable-libdrm --enable-libiec61883 --enable-chromaprint --enable-frei0r --enable-libopencv --enable-libx264 --enable-shared\n",
            "  libavutil      55. 78.100 / 55. 78.100\n",
            "  libavcodec     57.107.100 / 57.107.100\n",
            "  libavformat    57. 83.100 / 57. 83.100\n",
            "  libavdevice    57. 10.100 / 57. 10.100\n",
            "  libavfilter     6.107.100 /  6.107.100\n",
            "  libavresample   3.  7.  0 /  3.  7.  0\n",
            "  libswscale      4.  8.100 /  4.  8.100\n",
            "  libswresample   2.  9.100 /  2.  9.100\n",
            "  libpostproc    54.  7.100 / 54.  7.100\n",
            "Input #0, image2, from 'cartoonized_images/frame_%04d.png':\n",
            "  Duration: 00:00:26.77, start: 0.000000, bitrate: N/A\n",
            "    Stream #0:0: Video: png, rgb24(pc), 720x1280, 30 fps, 30 tbr, 30 tbn, 30 tbc\n",
            "Stream mapping:\n",
            "  Stream #0:0 -> #0:0 (png (native) -> h264 (libx264))\n",
            "Press [q] to stop, [?] for help\n",
            "\u001b[1;36m[libx264 @ 0x556de3b6de00] \u001b[0musing cpu capabilities: MMX2 SSE2Fast SSSE3 SSE4.2 AVX FMA3 BMI2 AVX2\n",
            "\u001b[1;36m[libx264 @ 0x556de3b6de00] \u001b[0mprofile High 4:4:4 Predictive, level 3.1, 4:4:4 8-bit\n",
            "\u001b[1;36m[libx264 @ 0x556de3b6de00] \u001b[0m264 - core 152 r2854 e9a5903 - H.264/MPEG-4 AVC codec - Copyleft 2003-2017 - http://www.videolan.org/x264.html - options: cabac=1 ref=3 deblock=1:0:0 analyse=0x1:0x111 me=hex subme=7 psy=1 psy_rd=1.00:0.00 mixed_ref=1 me_range=16 chroma_me=1 trellis=1 8x8dct=0 cqm=0 deadzone=21,11 fast_pskip=1 chroma_qp_offset=4 threads=3 lookahead_threads=1 sliced_threads=0 nr=0 decimate=1 interlaced=0 bluray_compat=0 constrained_intra=0 bframes=3 b_pyramid=2 b_adapt=1 b_bias=0 direct=1 weightb=1 open_gop=0 weightp=2 keyint=250 keyint_min=25 scenecut=40 intra_refresh=0 rc_lookahead=40 rc=crf mbtree=1 crf=23.0 qcomp=0.60 qpmin=0 qpmax=69 qpstep=4 ip_ratio=1.40 aq=1:1.00\n",
            "Output #0, mp4, to 'video.mp4':\n",
            "  Metadata:\n",
            "    encoder         : Lavf57.83.100\n",
            "    Stream #0:0: Video: h264 (libx264) (avc1 / 0x31637661), yuv444p, 720x1280, q=-1--1, 30 fps, 15360 tbn, 30 tbc\n",
            "    Metadata:\n",
            "      encoder         : Lavc57.107.100 libx264\n",
            "    Side data:\n",
            "      cpb: bitrate max/min/avg: 0/0/0 buffer size: 0 vbv_delay: -1\n",
            "frame=  803 fps= 15 q=-1.0 Lsize=    5201kB time=00:00:26.66 bitrate=1597.7kbits/s speed=0.51x    \n",
            "video:5190kB audio:0kB subtitle:0kB other streams:0kB global headers:0kB muxing overhead: 0.198061%\n",
            "\u001b[1;36m[libx264 @ 0x556de3b6de00] \u001b[0mframe I:4     Avg QP:20.20  size: 52242\n",
            "\u001b[1;36m[libx264 @ 0x556de3b6de00] \u001b[0mframe P:203   Avg QP:22.99  size: 16998\n",
            "\u001b[1;36m[libx264 @ 0x556de3b6de00] \u001b[0mframe B:596   Avg QP:27.81  size:  2776\n",
            "\u001b[1;36m[libx264 @ 0x556de3b6de00] \u001b[0mconsecutive B-frames:  0.6%  1.0%  0.7% 97.6%\n",
            "\u001b[1;36m[libx264 @ 0x556de3b6de00] \u001b[0mmb I  I16..4: 57.6%  0.0% 42.4%\n",
            "\u001b[1;36m[libx264 @ 0x556de3b6de00] \u001b[0mmb P  I16..4:  3.9%  0.0%  1.6%  P16..4: 29.8% 17.5%  9.3%  0.0%  0.0%    skip:37.9%\n",
            "\u001b[1;36m[libx264 @ 0x556de3b6de00] \u001b[0mmb B  I16..4:  0.2%  0.0%  0.1%  B16..8: 25.5%  4.3%  0.9%  direct: 1.0%  skip:68.0%  L0:45.4% L1:48.2% BI: 6.5%\n",
            "\u001b[1;36m[libx264 @ 0x556de3b6de00] \u001b[0mcoded y,u,v intra: 27.4% 20.0% 12.4% inter: 6.3% 1.4% 0.7%\n",
            "\u001b[1;36m[libx264 @ 0x556de3b6de00] \u001b[0mi16 v,h,dc,p: 37% 20% 10% 32%\n",
            "\u001b[1;36m[libx264 @ 0x556de3b6de00] \u001b[0mi4 v,h,dc,ddl,ddr,vr,hd,vl,hu: 30% 14% 25%  5%  6%  7%  4%  5%  3%\n",
            "\u001b[1;36m[libx264 @ 0x556de3b6de00] \u001b[0mWeighted P-Frames: Y:1.0% UV:1.0%\n",
            "\u001b[1;36m[libx264 @ 0x556de3b6de00] \u001b[0mref P L0: 44.7% 12.3% 27.0% 15.9%  0.1%\n",
            "\u001b[1;36m[libx264 @ 0x556de3b6de00] \u001b[0mref B L0: 80.1% 14.2%  5.7%\n",
            "\u001b[1;36m[libx264 @ 0x556de3b6de00] \u001b[0mref B L1: 94.5%  5.5%\n",
            "\u001b[1;36m[libx264 @ 0x556de3b6de00] \u001b[0mkb/s:1588.34\n"
          ],
          "name": "stdout"
        }
      ]
    }
  ]
}